<?xml version="1.0" encoding="utf-8"?><svg width="144" height="120" viewBox="0 0 144 120" xmlns="http://www.w3.org/2000/svg" xmlns:xlink="http://www.w3.org/1999/xlink"><svg width="24" height="24" viewBox="0 0 24 24" id="ui-ic-checkmark" xmlns="http://www.w3.org/2000/svg"><path d="M9.5 18.414l-5.707-5.707 1.414-1.414L9.5 15.586l9.293-9.293 1.414 1.414z"/></svg><svg width="24" height="24" viewBox="0 0 24 24" id="ui-ic-close" x="24" xmlns="http://www.w3.org/2000/svg"><path d="M19.85 4.85l-.7-.7L12 11.287 4.85 4.15l-.7.7L11.287 12 4.15 19.15l.7.7L12 12.712l7.15 7.138.7-.7L12.712 12z"/></svg><svg width="24" height="24" viewBox="0 0 24 24" id="ui-ic-close-small" y="24" xmlns="http://www.w3.org/2000/svg"><path d="M16.646 6.648l.705.705L12.713 12l4.639 4.647-.705.705L12 12.712l-4.648 4.64-.705-.704L11.287 12 6.648 7.352l.704-.704L12 11.288z"/></svg><svg width="24" height="24" viewBox="0 0 24 24" id="ui-ic-dot" x="24" y="24" xmlns="http://www.w3.org/2000/svg"><path d="M18 12a6 6 0 11-12 0 6 6 0 0112 0"/></svg><svg width="24" height="24" viewBox="0 0 24 24" id="ui-ic-down" x="48" xmlns="http://www.w3.org/2000/svg"><path d="M12 16.712L4.15 8.85l.7-.7L12 15.287l7.15-7.137.7.7z"/></svg><svg width="24" height="24" fill="#A4ABB3" viewBox="0 0 24 24" id="ui-ic-down-disabled" x="48" y="24" xmlns="http://www.w3.org/2000/svg"><path d="M12 16.712L4.15 8.85l.7-.7L12 15.287l7.15-7.137.7.7z"/></svg><svg width="24" height="24" fill="#43464a" viewBox="0 0 24 24" id="ui-ic-down-hover" y="48" xmlns="http://www.w3.org/2000/svg"><path d="M12 16.712L4.15 8.85l.7-.7L12 15.287l7.15-7.137.7.7z"/></svg><svg width="24" height="24" viewBox="0 0 24 24" id="ui-ic-error" x="24" y="48" xmlns="http://www.w3.org/2000/svg"><path fill="#ED0007" d="M16.212 2H7.787L2 7.787V16.2L7.787 22H16.2l5.787-5.787V7.786L16.213 2zm-4.85 5h1.276v3.112L12.3 13.95h-.613l-.337-3.838L11.363 7zM12 17c-.5 0-.887-.388-.887-.888s.387-.887.887-.887c.487 0 .887.4.887.887A.89.89 0 0112 17z"/><path fill="#FFF" d="M11.356 7h1.275v3.112l-.337 3.838h-.613l-.337-3.838zM11.994 17c-.5 0-.888-.388-.888-.888s.388-.887.888-.887c.487 0 .887.4.887.887a.89.89 0 01-.887.888z"/></svg><svg width="24" height="24" viewBox="0 0 24 24" id="ui-ic-indeterminate" x="48" y="48" xmlns="http://www.w3.org/2000/svg"><path d="M4 13h16v-2H4z"/></svg><svg width="24" height="24" viewBox="0 0 24 24" id="ui-ic-info" x="72" xmlns="http://www.w3.org/2000/svg"><path d="M12 2C6.487 2 2 6.487 2 12c0 5.512 4.487 10 10 10 5.512 0 10-4.488 10-10 0-5.513-4.488-10-10-10z" fill="#00629A"/><path d="M12 8.775a.89.89 0 01-.887-.888c0-.487.4-.887.887-.887.5 0 .887.388.887.888s-.387.887-.887.887zM12.65 17h-1.3v-6.95h1.313V17z" fill="#FFF"/></svg><svg width="24" height="24" viewBox="0 0 24 24" id="ui-ic-left" x="72" y="24" xmlns="http://www.w3.org/2000/svg"><path d="M15.3 4l.7.7L8.5 12l7.5 7.3-.7.7L7 12z"/></svg><svg width="24" height="24" fill="#A4ABB3" viewBox="0 0 24 24" id="ui-ic-left-disabled" x="72" y="48" xmlns="http://www.w3.org/2000/svg"><path d="M15.3 4l.7.7L8.5 12l7.5 7.3-.7.7L7 12z"/></svg><svg width="24" height="24" fill="#43464a" viewBox="0 0 24 24" id="ui-ic-left-hover" y="72" xmlns="http://www.w3.org/2000/svg"><path d="M15.3 4l.7.7L8.5 12l7.5 7.3-.7.7L7 12z"/></svg><svg width="8" height="24" viewBox="0 0 8 24" id="ui-ic-linkarrow" x="24" y="72" xmlns="http://www.w3.org/2000/svg"><path d="M.7 18l-.7-.7 5-5-5-5 .7-.7 5.7 5.7L.7 18z"/></svg><svg viewBox="0 0 16 16" width="16" height="12" id="ui-ic-list-checkmark" x="120" y="72" xmlns="http://www.w3.org/2000/svg"><path d="M5.563 12L0 6.35l1.378-1.4L5.563 9.2 14.622 0 16 1.4z"/></svg><svg width="8" height="8" viewBox="0 0 8 8" id="ui-ic-list-ul" x="136" y="72" xmlns="http://www.w3.org/2000/svg"><path d="M0 0h8v8H0z"/></svg><svg width="24" height="24" viewBox="0 0 24 24" id="ui-ic-minus" x="32" y="72" xmlns="http://www.w3.org/2000/svg"><path d="M4 11h16v1H4z"/></svg><svg width="24" height="24" fill="#A4ABB3" viewBox="0 0 24 24" id="ui-ic-minus-disabled" x="56" y="72" xmlns="http://www.w3.org/2000/svg"><path d="M4 11h16v1H4z"/></svg><svg width="24" height="24" viewBox="0 0 24 24" id="ui-ic-success" x="96" xmlns="http://www.w3.org/2000/svg"><path fill="#38862A" d="M12 2C6.487 2 2 6.487 2 12s4.487 10 10 10 10-4.488 10-10S17.512 2 12 2zm-1.5 13.712L7.15 12.35l.713-.713 2.637 2.65 5.65-5.65.713.713-6.363 6.362z"/><path fill="#FFF" d="M10.494 15.712l-3.35-3.362.712-.713 2.638 2.65 5.65-5.65.712.713z"/></svg><svg width="24" height="24" viewBox="0 0 24 24" id="ui-ic-plus" x="96" y="24" xmlns="http://www.w3.org/2000/svg"><path d="M20 11.5h-7.5V4h-1v7.5H4v1h7.5V20h1v-7.5H20z"/></svg><svg width="24" height="24" fill="#A4ABB3" viewBox="0 0 24 24" id="ui-ic-plus-disabled" x="96" y="48" xmlns="http://www.w3.org/2000/svg"><path d="M20 11.5h-7.5V4h-1v7.5H4v1h7.5V20h1v-7.5H20z"/></svg><svg width="24" height="24" viewBox="0 0 24 24" id="ui-ic-right" x="96" y="72" xmlns="http://www.w3.org/2000/svg"><path d="M8.85 19.85l-.7-.7L15.287 12 8.15 4.85l.7-.7L16.712 12z"/></svg><svg width="24" height="24" fill="#A4ABB3" viewBox="0 0 24 24" id="ui-ic-right-disabled" y="96" xmlns="http://www.w3.org/2000/svg"><path d="M8.85 19.85l-.7-.7L15.287 12 8.15 4.85l.7-.7L16.712 12z"/></svg><svg width="24" height="24" fill="#43464a" viewBox="0 0 24 24" id="ui-ic-right-hover" x="24" y="96" xmlns="http://www.w3.org/2000/svg"><path d="M8.85 19.85l-.7-.7L15.287 12 8.15 4.85l.7-.7L16.712 12z"/></svg><svg width="24" height="24" viewBox="0 0 24 24" id="ui-ic-search" x="48" y="96" xmlns="http://www.w3.org/2000/svg"><path d="M21.35 18.65l-7.1-7.112c.488-.913.75-1.938.75-3.038C15 4.912 12.088 2 8.5 2A6.503 6.503 0 002 8.5a6.503 6.503 0 009.537 5.75l7.113 7.113c.438.437.988.65 1.525.65.488 0 .95-.176 1.3-.526.75-.75.7-2.024-.125-2.837zM3 8.5a5.5 5.5 0 1111 0 5.5 5.5 0 01-11 0zm17.775 12.275a.824.824 0 01-.662.238 1.186 1.186 0 01-.75-.363l-6.95-6.95c.487-.362.925-.8 1.287-1.287l6.95 6.95c.2.2.338.474.363.75 0 .175-.026.437-.238.662z"/></svg><svg width="24" height="24" viewBox="0 0 24 24" id="ui-ic-up" x="72" y="96" xmlns="http://www.w3.org/2000/svg"><path d="M19.287 16L12 8.498 4.713 16 4 15.264 12 7l8 8.264z"/></svg><svg width="24" height="24" fill="#43464a" viewBox="0 0 24 24" id="ui-ic-up-hover" x="96" y="96" xmlns="http://www.w3.org/2000/svg"><path d="M19.287 16L12 8.498 4.713 16 4 15.264 12 7l8 8.264z"/></svg><svg width="24" height="24" viewBox="0 0 24 24" id="ui-ic-warning" x="120" xmlns="http://www.w3.org/2000/svg"><path fill="#FFCF00" d="M12 2.962L2.025 21h19.95z"/><path d="M12 17.225c.488 0 .887.4.887.887A.89.89 0 0112 19a.875.875 0 01-.887-.887c0-.5.387-.888.887-.888zM12.637 9v3.113L12.3 15.95h-.613l-.337-3.837L11.363 9h1.274z"/></svg><svg width="24" height="24" viewBox="0 0 24 24" id="ui-ic-watch-off" x="120" y="24" xmlns="http://www.w3.org/2000/svg"><path d="M9.52 12.347A2.506 2.506 0 0111.993 9.5c.126 0 .238.013.35.025l.825-.824a3.314 3.314 0 00-1.174-.2 3.508 3.508 0 00-3.298 4.672l.824-.825zM14.467 11.648a2.506 2.506 0 01-2.823 2.823l-.824.824c.362.138.762.2 1.174.2a3.508 3.508 0 003.298-4.672l-.825.825zM4.136 19.142l14.99-14.99.706.707-14.99 14.989z"/><path d="M21.425 11.76c-.05-.087-1.15-2.086-3.36-3.71l-.712.712a12.077 12.077 0 013.06 3.236c-.65 1.024-3.485 4.996-8.407 4.996a8.908 8.908 0 01-2.51-.362l-.763.762-.012.05a9.765 9.765 0 003.285.562c6.221 0 9.307-5.521 9.432-5.759l.125-.237-.138-.25zM5.923 15.945l.712-.712c-1.674-1.187-2.698-2.66-3.06-3.235C4.223 10.973 7.058 7 11.98 7c.862 0 1.7.125 2.511.362l.762-.762.013-.05a9.945 9.945 0 00-3.273-.55c-6.221 0-9.307 5.522-9.432 5.76l-.124.237.124.237c.05.087 1.15 2.086 3.36 3.71z"/></svg><svg width="24" height="24" viewBox="0 0 24 24" id="ui-ic-watch-on" x="120" y="48" xmlns="http://www.w3.org/2000/svg"><path d="M12 18c-6.225 0-9.313-5.525-9.438-5.763L2.438 12l.124-.237C2.688 11.524 5.776 6 12 6s9.313 5.525 9.438 5.763l.125.237-.125.237C21.313 12.476 18.224 18 12 18zm-8.412-6c.65 1.025 3.5 5 8.412 5 4.938 0 7.763-3.975 8.412-5-.65-1.025-3.5-5-8.412-5-4.938 0-7.763 3.975-8.412 5z"/><path d="M12 15.495c-1.922 0-3.495-1.573-3.495-3.495S10.078 8.505 12 8.505s3.495 1.573 3.495 3.495-1.573 3.495-3.495 3.495zm0-5.992c-1.373 0-2.497 1.124-2.497 2.497s1.124 2.497 2.497 2.497 2.497-1.124 2.497-2.497S13.373 9.503 12 9.503z"/></svg></svg>